<svg width="13" height="9" viewBox="0 0 13 9" fill="none" xmlns="http://www.w3.org/2000/svg">
<path d="M12.0532 7.01492C12.0552 7.28013 11.9518 7.53528 11.7657 7.72423C11.5796 7.91319 11.326 8.02047 11.0608 8.02248L1.06111 8.09839C0.795899 8.1004 0.540752 7.99698 0.351797 7.81087C0.162843 7.62477 0.0555589 7.37122 0.0535457 7.10601C0.0515325 6.8408 0.154955 6.58566 0.341062 6.3967C0.52717 6.20775 0.780717 6.10046 1.04593 6.09845L11.0456 6.02254C11.3108 6.02053 11.566 6.12395 11.7549 6.31006C11.9439 6.49617 12.0512 6.74971 12.0532 7.01492Z" fill="black" fill-opacity="0.5"/>
<path d="M8.03037 4.06051C8.03239 4.32572 7.92896 4.58087 7.74286 4.76982C7.55675 4.95878 7.3032 5.06606 7.03799 5.06808L1.03817 5.11362C0.772957 5.11563 0.51781 5.01221 0.328856 4.8261C0.139901 4.64 0.0326166 4.38645 0.0306034 4.12124C0.0285902 3.85603 0.132014 3.60089 0.318121 3.41193C0.504228 3.22298 0.757775 3.11569 1.02298 3.11368L7.02281 3.06813C7.28802 3.06612 7.54317 3.16954 7.73212 3.35565C7.92108 3.54176 8.02836 3.79531 8.03037 4.06051Z" fill="black" fill-opacity="0.5"/>
<path d="M3.03811 2.06808C3.30332 2.06606 3.55687 1.95878 3.74298 1.76982C3.92909 1.58087 4.03251 1.32572 4.0305 1.06051C4.02848 0.795306 3.9212 0.541758 3.73224 0.355651C3.54329 0.169543 3.28814 0.066121 3.02293 0.0681342L1.02299 0.0833158C0.757782 0.085329 0.504235 0.192613 0.318128 0.381567C0.13202 0.570522 0.0285971 0.825669 0.0306103 1.09088C0.0326235 1.35609 0.139908 1.60963 0.328863 1.79574C0.517817 1.98185 0.772963 2.08527 1.03817 2.08326L3.03811 2.06808Z" fill="black" fill-opacity="0.5"/>
</svg>
