<svg width="20" height="20" viewBox="0 0 20 20" fill="none" xmlns="http://www.w3.org/2000/svg">
<path d="M17.1875 2.1875H2.8125C2.4668 2.1875 2.1875 2.4668 2.1875 2.8125V17.1875C2.1875 17.5332 2.4668 17.8125 2.8125 17.8125H17.1875C17.5332 17.8125 17.8125 17.5332 17.8125 17.1875V2.8125C17.8125 2.4668 17.5332 2.1875 17.1875 2.1875ZM16.4062 16.4062H3.59375V3.59375H16.4062V16.4062Z" fill="black" fill-opacity="0.2"/>
<path d="M3.59375 16.4062H16.4062V3.59375H3.59375V16.4062ZM6.25 9.53125C6.25 9.44531 6.32031 9.375 6.40625 9.375H9.375V6.40625C9.375 6.32031 9.44531 6.25 9.53125 6.25H10.4688C10.5547 6.25 10.625 6.32031 10.625 6.40625V9.375H13.5938C13.6797 9.375 13.75 9.44531 13.75 9.53125V10.4688C13.75 10.5547 13.6797 10.625 13.5938 10.625H10.625V13.5938C10.625 13.6797 10.5547 13.75 10.4688 13.75H9.53125C9.44531 13.75 9.375 13.6797 9.375 13.5938V10.625H6.40625C6.32031 10.625 6.25 10.5547 6.25 10.4688V9.53125Z" fill="white"/>
<path d="M6.40625 10.625H9.375V13.5938C9.375 13.6797 9.44531 13.75 9.53125 13.75H10.4688C10.5547 13.75 10.625 13.6797 10.625 13.5938V10.625H13.5938C13.6797 10.625 13.75 10.5547 13.75 10.4688V9.53125C13.75 9.44531 13.6797 9.375 13.5938 9.375H10.625V6.40625C10.625 6.32031 10.5547 6.25 10.4688 6.25H9.53125C9.44531 6.25 9.375 6.32031 9.375 6.40625V9.375H6.40625C6.32031 9.375 6.25 9.44531 6.25 9.53125V10.4688C6.25 10.5547 6.32031 10.625 6.40625 10.625Z" fill="black" fill-opacity="0.5"/>
</svg>
