<svg width="18" height="22" viewBox="0 0 18 22" fill="none" xmlns="http://www.w3.org/2000/svg">
<path d="M11.22 13.75C15.21 13.75 18 11.1952 18 7.52258C18 3.85 15.21 1.375 11.22 1.375H3.5625C3.25186 1.375 3 1.60587 3 1.89062V10.7693H0.5625C0.251859 10.7693 0 11.0002 0 11.285V13.2344C0 13.5191 0.251859 13.75 0.5625 13.75H3V15.125H0.5625C0.251859 15.125 0 15.3559 0 15.6406V17.3594C0 17.6441 0.251859 17.875 0.5625 17.875H3V20.1094C3 20.3941 3.25186 20.625 3.5625 20.625H6.3075C6.61814 20.625 6.87 20.3941 6.87 20.1094V17.875H14.4375C14.7481 17.875 15 17.6441 15 17.3594V15.6406C15 15.3559 14.7481 15.125 14.4375 15.125H6.87V13.75H11.22ZM6.87 4.32902H10.56C12.75 4.32902 14.07 5.57984 14.07 7.52258C14.07 9.49193 12.75 10.7693 10.5 10.7693H6.87V4.32902Z" fill="black"/>
</svg>
