<svg width="16" height="16" viewBox="0 0 16 16" fill="none" xmlns="http://www.w3.org/2000/svg">
<path d="M6.12759 10.4787C8.67017 12.3153 12.1909 11.701 13.9911 9.10759C15.7912 6.51415 15.1894 2.92299 12.6464 1.08683C10.1038 -0.749332 6.58354 -0.135523 4.78339 2.45836C3.49855 4.30944 3.39961 6.75677 4.53003 8.7092L0.395916 12.9515C-0.0768123 13.4095 -0.0957386 14.1716 0.353332 14.6538C0.801972 15.136 1.54913 15.1553 2.02186 14.6977C2.03692 14.6832 2.05068 14.6692 2.06488 14.6538L6.12759 10.4787ZM5.74218 5.77924C5.74175 3.72985 7.36941 2.06831 9.37862 2.06699C11.3878 2.06655 13.0168 3.72678 13.0176 5.77661C13.0185 7.82337 11.3934 9.48403 9.38679 9.48798C7.37716 9.49149 5.74562 7.83215 5.74218 5.78187C5.74218 5.781 5.74218 5.78056 5.74218 5.77924Z" fill="white"/>
</svg>
