<svg width="25" height="25" viewBox="0 0 25 25" fill="none" xmlns="http://www.w3.org/2000/svg">
<path d="M24.0091 19.2L5.34239 19.2056L5.34383 24.0056L24.0105 24L24.0091 19.2ZM24.0062 9.6L5.33951 9.6056L5.34095 14.4056L24.0076 14.4L24.0062 9.6ZM24.0033 4.76837e-07L5.33663 0.00560078L5.33807 4.8056L24.0047 4.8L24.0033 4.76837e-07ZM2.66996 0.00640083L0.00329837 0.00720087L0.00473845 4.8072L2.67141 4.8064L2.66996 0.00640083ZM2.67717 24.0064L2.67573 19.2064L0.00905868 19.2072L0.0104988 24.0072L2.67717 24.0064ZM2.67285 9.6064L0.00617853 9.6072L0.00761861 14.4072L2.67429 14.4064L2.67285 9.6064Z" fill="black"/>
</svg>
