<svg display="none" xmlns="http://www.w3.org/2000/svg">
        <symbol id="facebook" viewBox="0 0 512 512">
           <path d="m512 256c0-141.4-114.6-256-256-256s-256 114.6-256 256 114.6 256 256 256c1.5 0 3 0 4.5-.1v-199.2h-55v-64.1h55v-47.2c0-54.7 33.4-84.5 82.2-84.5 23.4 0 43.5 1.7 49.3 2.5v57.2h-33.6c-26.5 0-31.7 12.6-31.7 31.1v40.8h63.5l-8.3 64.1h-55.2v189.5c107-30.7 185.3-129.2 185.3-246.1z"/>
        </symbol>
        <symbol id="ctrl" viewBox="0 0 16 16">
           <path d="M4.50066 6.19984C4.63965 6.19984 4.77814 6.25552 4.87713 6.36353L8.00035 9.79082L11.1236 6.36353C11.3055 6.16384 11.621 6.14368 11.829 6.31841C12.037 6.49313 12.058 6.79602 11.876 6.9957L8.37631 10.8358C8.28132 10.94 8.14433 10.9995 7.99985 10.9995C7.85536 10.9995 7.71837 10.9395 7.62338 10.8358L4.1237 6.9957C3.94171 6.79602 3.96271 6.49313 4.17069 6.31841C4.26568 6.23872 4.38267 6.19984 4.49966 6.19984H4.50066Z"/>
        </symbol>
    </svg>