<svg display="none" xmlns="http://www.w3.org/2000/svg">
   <symbol id="facebook" viewBox="0 0 512 512">
      <path d="m512 256c0-141.4-114.6-256-256-256s-256 114.6-256 256 114.6 256 256 256c1.5 0 3 0 4.5-.1v-199.2h-55v-64.1h55v-47.2c0-54.7 33.4-84.5 82.2-84.5 23.4 0 43.5 1.7 49.3 2.5v57.2h-33.6c-26.5 0-31.7 12.6-31.7 31.1v40.8h63.5l-8.3 64.1h-55.2v189.5c107-30.7 185.3-129.2 185.3-246.1z"/>
   </symbol>
   <symbol id="ctrl" viewBox="0 0 16 16">
      <path d="M4.50066 6.19984C4.63965 6.19984 4.77814 6.25552 4.87713 6.36353L8.00035 9.79082L11.1236 6.36353C11.3055 6.16384 11.621 6.14368 11.829 6.31841C12.037 6.49313 12.058 6.79602 11.876 6.9957L8.37631 10.8358C8.28132 10.94 8.14433 10.9995 7.99985 10.9995C7.85536 10.9995 7.71837 10.9395 7.62338 10.8358L4.1237 6.9957C3.94171 6.79602 3.96271 6.49313 4.17069 6.31841C4.26568 6.23872 4.38267 6.19984 4.49966 6.19984H4.50066Z"/>
   </symbol>
   <symbol id="search" viewBox="0 0 16 16">
      <path d="M6.12759 10.4787C8.67017 12.3153 12.1909 11.701 13.9911 9.10759C15.7912 6.51415 15.1894 2.92299 12.6464 1.08683C10.1038 -0.749332 6.58354 -0.135523 4.78339 2.45836C3.49855 4.30944 3.39961 6.75677 4.53003 8.7092L0.395916 12.9515C-0.0768123 13.4095 -0.0957386 14.1716 0.353332 14.6538C0.801972 15.136 1.54913 15.1553 2.02186 14.6977C2.03692 14.6832 2.05068 14.6692 2.06488 14.6538L6.12759 10.4787ZM5.74218 5.77924C5.74175 3.72985 7.36941 2.06831 9.37862 2.06699C11.3878 2.06655 13.0168 3.72678 13.0176 5.77661C13.0185 7.82337 11.3934 9.48403 9.38679 9.48798C7.37716 9.49149 5.74562 7.83215 5.74218 5.78187C5.74218 5.781 5.74218 5.78056 5.74218 5.77924Z" fill="white"/>
   </symbol>
   <symbol id="table" viewBox="0 0 25 25">
      <path d="M24.0091 19.2L5.34239 19.2056L5.34383 24.0056L24.0105 24L24.0091 19.2ZM24.0062 9.6L5.33951 9.6056L5.34095 14.4056L24.0076 14.4L24.0062 9.6ZM24.0033 4.76837e-07L5.33663 0.00560078L5.33807 4.8056L24.0047 4.8L24.0033 4.76837e-07ZM2.66996 0.00640083L0.00329837 0.00720087L0.00473845 4.8072L2.67141 4.8064L2.66996 0.00640083ZM2.67717 24.0064L2.67573 19.2064L0.00905868 19.2072L0.0104988 24.0072L2.67717 24.0064ZM2.67285 9.6064L0.00617853 9.6072L0.00761861 14.4072L2.67429 14.4064L2.67285 9.6064Z" fill="black"/>
   </symbol>
   <symbol id="tile" viewBox="0 0 24 24">
      <path d="M24 0H13.5V10.5H24V0Z" fill="black" fill-opacity="0.5"/>
      <path d="M24 13.5V24H13.5V13.5H24Z" fill="black" fill-opacity="0.5"/>
      <path d="M10.5 13.5V24H0V13.5H10.5Z" fill="black" fill-opacity="0.5"/>
      <path d="M0 10.5V0H10.5V10.5H0Z" fill="black" fill-opacity="0.5"/>
   </symbol>
</svg>