<svg display="none" xmlns="http://www.w3.org/2000/svg">
   <symbol id="facebook" viewBox="0 0 512 512">
      <path d="m512 256c0-141.4-114.6-256-256-256s-256 114.6-256 256 114.6 256 256 256c1.5 0 3 0 4.5-.1v-199.2h-55v-64.1h55v-47.2c0-54.7 33.4-84.5 82.2-84.5 23.4 0 43.5 1.7 49.3 2.5v57.2h-33.6c-26.5 0-31.7 12.6-31.7 31.1v40.8h63.5l-8.3 64.1h-55.2v189.5c107-30.7 185.3-129.2 185.3-246.1z"/>
   </symbol>
   <symbol id="ctrl" viewBox="0 0 16 16">
      <path d="M4.50066 6.19984C4.63965 6.19984 4.77814 6.25552 4.87713 6.36353L8.00035 9.79082L11.1236 6.36353C11.3055 6.16384 11.621 6.14368 11.829 6.31841C12.037 6.49313 12.058 6.79602 11.876 6.9957L8.37631 10.8358C8.28132 10.94 8.14433 10.9995 7.99985 10.9995C7.85536 10.9995 7.71837 10.9395 7.62338 10.8358L4.1237 6.9957C3.94171 6.79602 3.96271 6.49313 4.17069 6.31841C4.26568 6.23872 4.38267 6.19984 4.49966 6.19984H4.50066Z"/>
   </symbol>
   <symbol id="search" viewBox="0 0 16 16">
      <path d="M6.12759 10.4787C8.67017 12.3153 12.1909 11.701 13.9911 9.10759C15.7912 6.51415 15.1894 2.92299 12.6464 1.08683C10.1038 -0.749332 6.58354 -0.135523 4.78339 2.45836C3.49855 4.30944 3.39961 6.75677 4.53003 8.7092L0.395916 12.9515C-0.0768123 13.4095 -0.0957386 14.1716 0.353332 14.6538C0.801972 15.136 1.54913 15.1553 2.02186 14.6977C2.03692 14.6832 2.05068 14.6692 2.06488 14.6538L6.12759 10.4787ZM5.74218 5.77924C5.74175 3.72985 7.36941 2.06831 9.37862 2.06699C11.3878 2.06655 13.0168 3.72678 13.0176 5.77661C13.0185 7.82337 11.3934 9.48403 9.38679 9.48798C7.37716 9.49149 5.74562 7.83215 5.74218 5.78187C5.74218 5.781 5.74218 5.78056 5.74218 5.77924Z" fill="white"/>
   </symbol>
   <symbol id="table" viewBox="0 0 25 25">
      <path d="M24.0091 19.2L5.34239 19.2056L5.34383 24.0056L24.0105 24L24.0091 19.2ZM24.0062 9.6L5.33951 9.6056L5.34095 14.4056L24.0076 14.4L24.0062 9.6ZM24.0033 4.76837e-07L5.33663 0.00560078L5.33807 4.8056L24.0047 4.8L24.0033 4.76837e-07ZM2.66996 0.00640083L0.00329837 0.00720087L0.00473845 4.8072L2.67141 4.8064L2.66996 0.00640083ZM2.67717 24.0064L2.67573 19.2064L0.00905868 19.2072L0.0104988 24.0072L2.67717 24.0064ZM2.67285 9.6064L0.00617853 9.6072L0.00761861 14.4072L2.67429 14.4064L2.67285 9.6064Z" fill="black"/>
   </symbol>
   <symbol id="tile" viewBox="0 0 24 24">
      <path d="M24 0H13.5V10.5H24V0Z" fill="black" fill-opacity="0.5"/>
      <path d="M24 13.5V24H13.5V13.5H24Z" fill="black" fill-opacity="0.5"/>
      <path d="M10.5 13.5V24H0V13.5H10.5Z" fill="black" fill-opacity="0.5"/>
      <path d="M0 10.5V0H10.5V10.5H0Z" fill="black" fill-opacity="0.5"/>
   </symbol>
   <symbol id="lowprice" viewBox="0 0 13 9">
      <path d="M12.0532 7.01492C12.0552 7.28013 11.9518 7.53528 11.7657 7.72423C11.5796 7.91319 11.326 8.02047 11.0608 8.02248L1.06111 8.09839C0.795899 8.1004 0.540752 7.99698 0.351797 7.81087C0.162843 7.62477 0.0555589 7.37122 0.0535457 7.10601C0.0515325 6.8408 0.154955 6.58566 0.341062 6.3967C0.52717 6.20775 0.780717 6.10046 1.04593 6.09845L11.0456 6.02254C11.3108 6.02053 11.566 6.12395 11.7549 6.31006C11.9439 6.49617 12.0512 6.74971 12.0532 7.01492Z" fill="black" fill-opacity="0.5"/>
      <path d="M8.03037 4.06051C8.03239 4.32572 7.92896 4.58087 7.74286 4.76982C7.55675 4.95878 7.3032 5.06606 7.03799 5.06808L1.03817 5.11362C0.772957 5.11563 0.51781 5.01221 0.328856 4.8261C0.139901 4.64 0.0326166 4.38645 0.0306034 4.12124C0.0285902 3.85603 0.132014 3.60089 0.318121 3.41193C0.504228 3.22298 0.757775 3.11569 1.02298 3.11368L7.02281 3.06813C7.28802 3.06612 7.54317 3.16954 7.73212 3.35565C7.92108 3.54176 8.02836 3.79531 8.03037 4.06051Z" fill="black" fill-opacity="0.5"/>
      <path d="M3.03811 2.06808C3.30332 2.06606 3.55687 1.95878 3.74298 1.76982C3.92909 1.58087 4.03251 1.32572 4.0305 1.06051C4.02848 0.795306 3.9212 0.541758 3.73224 0.355651C3.54329 0.169543 3.28814 0.066121 3.02293 0.0681342L1.02299 0.0833158C0.757782 0.085329 0.504235 0.192613 0.318128 0.381567C0.13202 0.570522 0.0285971 0.825669 0.0306103 1.09088C0.0326235 1.35609 0.139908 1.60963 0.328863 1.79574C0.517817 1.98185 0.772963 2.08527 1.03817 2.08326L3.03811 2.06808Z" fill="black" fill-opacity="0.5"/>
   </symbol>
   <symbol id="rub" viewBox="0 0 18 22">
      <path d="M11.22 13.75C15.21 13.75 18 11.1952 18 7.52258C18 3.85 15.21 1.375 11.22 1.375H3.5625C3.25186 1.375 3 1.60587 3 1.89062V10.7693H0.5625C0.251859 10.7693 0 11.0002 0 11.285V13.2344C0 13.5191 0.251859 13.75 0.5625 13.75H3V15.125H0.5625C0.251859 15.125 0 15.3559 0 15.6406V17.3594C0 17.6441 0.251859 17.875 0.5625 17.875H3V20.1094C3 20.3941 3.25186 20.625 3.5625 20.625H6.3075C6.61814 20.625 6.87 20.3941 6.87 20.1094V17.875H14.4375C14.7481 17.875 15 17.6441 15 17.3594V15.6406C15 15.3559 14.7481 15.125 14.4375 15.125H6.87V13.75H11.22ZM6.87 4.32902H10.56C12.75 4.32902 14.07 5.57984 14.07 7.52258C14.07 9.49193 12.75 10.7693 10.5 10.7693H6.87V4.32902Z" fill="black"/>
   </symbol>
   <symbol id="lightrub" viewBox="0 0 16 18">
      <path d="M2 0V9H0V10.8H2V12.6H0V14.4H2V18H4V14.4H9V12.6H4V10.8H10C13.3 10.8 16 8.37 16 5.4C16 2.43 13.3 0 10 0H2ZM4 1.8H10C12.219 1.8 14 3.4029 14 5.4C14 7.3971 12.219 9 10 9H4V1.8Z" fill="black" fill-opacity="0.5"/>
   </symbol>
   <path d="M27 23H10L5 2H2M6 6H30L27 19H9L6 6Z" stroke="white" stroke-width="2" stroke-linecap="round" stroke-linejoin="round"/>
   <symbol id="cart" viewBox="0 0 32 32">
      <path d="M12 29c0 1.657-1.343 3-3 3s-3-1.343-3-3c0-1.657 1.343-3 3-3s3 1.343 3 3z"></path>
      <path d="M32 29c0 1.657-1.343 3-3 3s-3-1.343-3-3c0-1.657 1.343-3 3-3s3 1.343 3 3z"></path>
      <path d="M32 16v-12h-24c0-1.105-0.895-2-2-2h-6v2h4l1.502 12.877c-0.915 0.733-1.502 1.859-1.502 3.123 0 2.209 1.791 4 4 4h24v-2h-24c-1.105 0-2-0.895-2-2 0-0.007 0-0.014 0-0.020l26-3.98z"></path>
   </symbol>
   <symbol id="plus" viewBox="0 0 20 20">
      <path d="M17.1875 2.1875H2.8125C2.4668 2.1875 2.1875 2.4668 2.1875 2.8125V17.1875C2.1875 17.5332 2.4668 17.8125 2.8125 17.8125H17.1875C17.5332 17.8125 17.8125 17.5332 17.8125 17.1875V2.8125C17.8125 2.4668 17.5332 2.1875 17.1875 2.1875ZM16.4062 16.4062H3.59375V3.59375H16.4062V16.4062Z" fill="black" fill-opacity="0.2"/>
      <path d="M3.59375 16.4062H16.4062V3.59375H3.59375V16.4062ZM6.25 9.53125C6.25 9.44531 6.32031 9.375 6.40625 9.375H9.375V6.40625C9.375 6.32031 9.44531 6.25 9.53125 6.25H10.4688C10.5547 6.25 10.625 6.32031 10.625 6.40625V9.375H13.5938C13.6797 9.375 13.75 9.44531 13.75 9.53125V10.4688C13.75 10.5547 13.6797 10.625 13.5938 10.625H10.625V13.5938C10.625 13.6797 10.5547 13.75 10.4688 13.75H9.53125C9.44531 13.75 9.375 13.6797 9.375 13.5938V10.625H6.40625C6.32031 10.625 6.25 10.5547 6.25 10.4688V9.53125Z" fill="white"/>
      <path d="M6.40625 10.625H9.375V13.5938C9.375 13.6797 9.44531 13.75 9.53125 13.75H10.4688C10.5547 13.75 10.625 13.6797 10.625 13.5938V10.625H13.5938C13.6797 10.625 13.75 10.5547 13.75 10.4688V9.53125C13.75 9.44531 13.6797 9.375 13.5938 9.375H10.625V6.40625C10.625 6.32031 10.5547 6.25 10.4688 6.25H9.53125C9.44531 6.25 9.375 6.32031 9.375 6.40625V9.375H6.40625C6.32031 9.375 6.25 9.44531 6.25 9.53125V10.4688C6.25 10.5547 6.32031 10.625 6.40625 10.625Z" fill="black" fill-opacity="0.5"/>
   </symbol>  
   <symbol id="star_on" viewBox="0 0 32 32">
      <path d="M32 12.408l-11.056-1.607-4.944-10.018-4.944 10.018-11.056 1.607 8 7.798-1.889 11.011 9.889-5.199 9.889 5.199-1.889-11.011 8-7.798z"></path> 
   </symbol>
   <symbol id="star_off" viewBox="0 0 32 32">
      <path d="M32 12.408l-11.056-1.607-4.944-10.018-4.944 10.018-11.056 1.607 8 7.798-1.889 11.011 9.889-5.199 9.889 5.199-1.889-11.011 8-7.798z"></path>
   </symbol>
   <symbol id="star_half" viewBox="0 0 32 32">
      <path d="M32 12.408l-11.056-1.607-4.944-10.018-4.944 10.018-11.056 1.607 8 7.798-1.889 11.011 9.889-5.199 9.889 5.199-1.889-11.011 8-7.798zM16 23.547l-0.029 0.015 0.029-17.837 3.492 7.075 7.807 1.134-5.65 5.507 1.334 7.776-6.983-3.671z"></path>
   </symbol>
</svg>